<svg width="483" height="156" viewBox="0 0 483 156" fill="none" xmlns="http://www.w3.org/2000/svg">
<path d="M28.04 36.56 C28.27 38.17 28.38 39.84 28.69 41.44 C28.76 41.81 29.14 42.47 29.18 42.74 C29.43 44.18 29.18 45.53 29.18 46.96 C29.26 46.99 28.95 47.1 29.02 47.13 C30.1 47.53 31.57 47.5 32.68 47.94 C32.95 48.04 33.98 49.28 34.27 49.56 C35.3 50.59 36.49 51.52 37.71 52.33 C41.4 54.77 45.83 56.69 50.06 58.01 C54.14 59.29 58.36 60.47 62.57 61.21 C66.81 61.95 71.03 62.2 75.25 62.73 C77.2 62.97 79.5 62.73 81.48 62.73 C85.3 62.73 89.02 62.71 92.8 62.24 C94.56 62.02 96.44 62.16 98.21 61.91 C100.99 61.52 103.79 61.17 106.57 60.78 C115.49 59.51 124.85 56.65 133.13 53.14 C136.22 51.82 139.39 50.28 142.2 48.43 C146.24 45.75 150.34 42.55 153.46 38.84 C155.63 36.25 157.1 33.34 158.6 30.39 C159.57 28.45 159.55 25.99 159.85 23.89 C160.46 19.7 158.72 14.17 155.43 11.38 C149.65 6.47 143.3 4.42 135.81 3.36 C127.01 2.11 118.1 2.93 109.41 4.55 C106.15 5.16 102.9 5.86 99.68 6.66 C83.68 10.63 67.79 17.6 53.94 26.49 C49.09 29.6 44.2 33.11 39.84 36.89 C38.41 38.13 37.01 39.39 35.58 40.63 C35.15 41 34.8 41.5 34.32 41.82 C33.62 42.28 32.81 42.37 32.08 42.74 C31.63 42.96 31.12 43.52 30.71 43.82 C30.36 44.08 30.5 44.9 30.33 45.34 C30.03 46.09 29.62 46.6 29.02 47.13 C25.88 49.85 23.16 53.38 20.77 56.77 C17.84 60.92 15.21 65.09 12.79 69.55 C3.35 86.92 -1.17 109.98 9.95 127.78 C12.52 131.9 15.7 135.69 19.35 138.94 C36.63 154.35 63.98 155.33 84.82 147.06 C89.39 145.25 93.98 143.12 98.1 140.4 C102.89 137.23 107.13 133.86 111.49 130.16 C112.92 128.95 114.71 127.53 115.91 126.1 C117.37 124.37 119.02 122.78 120.5 121.06 C122.42 118.84 124.16 116.45 126.08 114.24 C126.62 113.61 128.15 113.24 128.92 112.94 C131.38 111.96 133.85 111.19 135.59 109.04 C137.02 107.27 137.17 104.33 137.88 102.21 C138.14 101.45 138.59 100.79 138.87 100.05 C139.57 98.2 139.97 96.2 140.67 94.36 C141.64 91.78 142.65 89.24 143.62 86.67 C144.43 84.53 145.3 82.77 146.57 80.87 C147.02 80.21 147.45 79.33 148.05 78.81 C149.58 77.49 152.38 77.55 154.06 76.27 C155.1 75.47 156.08 74.48 157.07 73.61 C159.38 71.57 161.86 69.57 164.28 67.65 C169.48 63.53 174.71 59.47 179.69 55.09 C186.57 49.03 192.51 41.65 198 34.4 C198.91 33.19 199.79 31.95 200.57 30.66 C201.17 29.66 201.79 28.67 202.32 27.63 C202.81 26.65 203.32 25.78 203.74 24.75 C204.58 22.67 205.77 20.05 205.43 17.71 C205.36 17.22 205.18 16.73 205.1 16.25 C204.88 14.9 204.59 13.82 203.35 13 C200.34 11.01 195.82 12.1 192.81 13.38 C185.94 16.3 179.86 21.86 175.21 27.63 C164.26 41.19 156.57 56.74 149.36 72.48 C148.55 74.24 148.7 76.5 147.94 78.38 C147.1 80.45 145.35 82.17 144.44 84.23 C142.28 89.12 140.58 94.46 139.03 99.56 C138.75 100.49 138.19 101.29 137.88 102.21 C136.75 105.57 136.72 108.48 133.89 110.99 C134.51 112.55 133.81 114.19 133.62 115.86 C133.05 120.98 131.48 126.06 129.52 130.81 C129.54 130.78 129.48 130.89 129.47 130.92 C129.41 131.03 129.62 130.64 129.69 130.49 C129.81 130.2 129.9 129.91 130.01 129.62 C130.27 128.95 130.55 128.3 130.78 127.62 C131.57 125.25 132.61 122.74 133.07 120.3 C133.66 117.21 133.49 114.11 135.26 111.37 C135.81 110.51 137.25 108.66 138.05 107.95 C138.35 107.68 139.78 107.24 140.18 107.09 C142.04 106.35 144.15 105.94 145.37 104.27 C147.79 100.97 150.63 98.14 153.29 95.06 C156.82 90.99 160.66 87.02 164.77 83.53 C169.4 79.59 173.81 75.53 178.93 72.15 C181.74 70.29 184.17 68.63 187.45 67.55 C188.31 67.26 189.3 67.24 190.18 67.11 C192.5 66.78 194.35 66.66 196.58 67.76 C197.78 68.36 198.2 70.79 198.05 71.99 C197.91 73.15 197.71 74.49 197.23 75.56 C196.19 77.91 194.32 79.97 192.64 81.9 C186.1 89.46 179.87 98.15 175.1 106.93 C173.87 109.2 172.79 111.4 171.82 113.8 C171.27 115.16 170.53 116.86 170.35 118.3 C170.26 119.01 169.94 119.7 169.85 120.41 C169.37 124.27 168.43 129.83 171.82 132.76 C172.44 133.3 173.21 133.72 173.95 134.06 C174.97 134.53 175.95 134.76 177.07 134.88 C179.97 135.16 183.33 134.53 185.92 133.25 C188 132.22 189.75 130.67 191.49 129.19 C197.42 124.16 202.38 117.27 206.91 110.99 C207.92 109.58 208.89 107.91 210.02 106.6 C210.38 106.19 210.68 105.62 211.11 105.3 C212.44 104.31 214.44 104.02 215.81 103.19 C217.15 102.38 218.09 101.42 218.71 99.99 C220.21 96.55 221.17 93.05 222.97 89.7 C224.25 87.32 226.31 85.14 227.35 82.71 C228.18 80.74 228.65 78.56 229.37 76.54 C229.59 75.91 229.88 74.72 230.35 74.26 C231.78 72.84 233.81 71.72 235.54 70.69 C240.23 67.9 246.69 66.11 252.16 66.79 C253.44 66.95 254.75 66.85 256.04 67.17 C259.94 68.13 263.09 70.14 265.22 73.56 C267.2 76.74 268.03 81.46 267.57 85.15 C267.48 85.83 267.65 86.58 267.57 87.26 C267.27 89.62 267.06 92.18 266.37 94.47 C263.97 102.37 260.04 109.23 255.76 116.3 C255.05 117.48 254.01 118.93 253.63 120.25 C253.24 121.63 252.99 123.5 252.16 124.64 C251.95 124.92 251.18 125.69 250.85 125.88 C250.26 126.21 248.93 126.1 248.22 126.1 C248.07 126.1 247.33 126.04 247.24 126.1 C246.63 126.45 245.99 126.97 245.49 127.45 C245.18 127.75 244.87 128.04 244.62 128.38 C244.04 129.12 244.14 130.1 243.3 130.81 C242.23 131.72 240.98 132.48 239.81 133.25 C238.02 134.43 236.25 135.6 234.29 136.5 C231.15 137.93 225.88 138.71 222.37 137.91 C218.33 136.98 216.17 134.18 214.78 130.49 C214.22 129.02 214.17 127.75 213.96 126.26 C213.46 122.82 213.7 119.69 214.56 116.3 C214.9 114.94 215.12 113.58 215.54 112.23 C215.77 111.49 216.53 111.53 216.91 110.99 C217.26 110.49 217.57 109.63 217.73 109.04 C217.84 108.63 217.73 107.85 217.73 107.41 C217.73 106.45 217.91 105.08 217.73 104.16 C217.64 103.71 217.43 103.35 217.45 102.86 C217.52 101.8 218.51 101.32 218.82 100.48 C219.93 97.46 220.69 94.39 222.15 91.49 C223.29 89.23 224.57 87.12 226.03 85.04 C226.77 84 227.43 82.98 228.49 82.23 C229.15 81.76 230.04 81.47 230.79 81.14 C230.75 81.16 230.87 81.1 230.9 81.09 C231.01 81.03 230.89 81.08 230.52 81.25 C230.15 81.41 229.79 81.58 229.42 81.74 C228.58 82.09 227.89 82.62 227.29 83.31 C225.44 85.43 223.75 88.33 222.48 90.84 C220.96 93.86 220.04 96.98 218.93 100.15 C218.45 101.51 217.98 102.7 217.73 104.16 C217.58 105.02 217.73 106.2 217.73 107.09 C217.73 107.63 217.6 108.54 217.73 109.04 C218.22 110.99 220.05 111.13 221.22 112.4 C222.2 113.45 222.82 114.92 223.79 116.03 C226.2 118.75 228.69 120.89 231.99 122.53 C234.18 123.61 237.1 124.53 239.53 124.8 C240.47 124.9 241.45 124.89 242.37 125.02 C242.68 125.06 243.07 124.91 243.3 125.13 C243.91 125.68 244.5 126.46 245.05 127.08 C245.5 126.69 245.77 126.28 246.42 126.1 C246.98 125.95 248.09 126.1 248.71 126.1 C250.47 126.1 252.21 126.1 253.96 126.1 C255.52 126.1 257.17 125.8 258.71 125.61 C262.09 125.19 264.97 124.7 267.95 122.8 C270.14 121.4 272.01 119.83 273.96 118.14 C274.64 117.55 275.09 116.77 275.77 116.19 C276.57 115.49 277.53 115.11 278.28 114.29 C281.89 110.36 284.49 105.56 287.62 101.29 C288.5 100.1 289.75 99.42 290.52 98.2 C293.32 93.76 295.72 88.98 298.55 84.55 C299.19 83.56 299.83 83.1 300.85 82.55 C301.77 82.05 302.75 81.82 303.36 80.93 C304.35 79.49 304.56 77.54 305.11 75.89 C305.86 73.68 307.15 71.57 308.28 69.55 C308.82 69.02 307.71 70.65 307.57 70.9 C306.93 72.05 306.29 73.27 305.77 74.48 C305.2 75.79 304.39 77.86 304.35 79.25 C304.3 80.76 305.01 81.65 305.44 82.93 C305.77 83.91 305.98 84.92 306.59 85.8 C307.35 86.91 308.74 87.36 309.98 87.75 C313.2 88.76 316.66 89.21 320.03 89.21 C320.3 89.21 320.78 89.15 321.02 89.27 C321.53 89.52 321.54 89.92 322.27 89.7 C324.66 88.97 327.41 86.78 329.32 85.26 C328.48 85.92 327.01 87.08 325.88 87.8 C324.69 88.57 323.6 88.96 322.66 90.08 C322.26 90.55 321.45 91.7 321.18 92.25 C320.5 93.6 320.62 94.97 319.65 96.31 C315.63 101.89 311.66 107.6 308.56 113.75 C307.3 116.24 305.99 118.82 305.22 121.5 C304.99 122.32 304.69 123.15 304.51 123.99 C303.64 128.03 303.08 134.85 308.06 136.5 C310.65 137.35 314.62 136.36 316.86 135.09 C321.41 132.51 325.1 128.82 328.56 124.96 C330.15 123.18 331.72 121.38 333.31 119.6 C334.25 118.56 334.95 117.41 336.1 116.57 C337.55 115.51 339.91 115.42 341.02 113.91 C341.54 113.2 342.04 112.26 342.44 111.48 C342.95 110.47 343.75 109.55 344.3 108.55 C345.6 106.18 347.02 103.81 348.45 101.51 C349.17 100.36 350.36 99.88 350.96 98.75 C352.21 96.43 353.2 93.97 354.46 91.65 C356.46 87.98 358.37 84.27 360.36 80.6 C361.33 78.83 362.26 76.9 363.48 75.29 C363.46 75.32 363.52 75.21 363.53 75.18 C363.61 75.04 363.29 75.55 363.15 75.73 C362.83 76.14 362.6 76.63 362.33 77.08 C361.65 78.24 361.01 79.42 360.36 80.6 C357.97 85.01 355.58 89.44 353.31 93.93 C352.46 95.63 351.75 97.51 350.75 99.13 C350.21 99.99 349.15 100.6 348.51 101.45 C347.42 102.89 346.53 104.76 345.61 106.33 C344.66 107.95 343.11 109.94 342.44 111.64 C341.85 113.13 341.59 114.82 341.35 116.4 C341.09 118.05 340.96 119.76 340.69 121.39 C340.07 125.1 338.12 131.2 342.82 133.2 C343.65 133.55 345.25 133.03 346.1 132.93 C349.65 132.49 352.29 130.65 355.17 128.65 C357.49 127.04 359.41 125.16 361.51 123.34 C366.3 119.18 370.77 114.26 374.96 109.53 C376.69 107.56 378.47 105.64 380.2 103.68 C380.57 103.25 380.93 102.81 381.3 102.38 C381.48 102.16 381.56 101.76 381.84 101.73 C382.7 101.63 384.43 102.09 385.34 102.21 C385.52 102.01 385.86 101.88 385.89 101.62 C385.94 101.18 385.72 99.95 385.67 99.45 C386.56 99.08 387.54 98.71 388.29 98.1 C388.98 97.52 389.53 96.36 390.04 95.6 C390.92 94.29 391.99 93.09 392.83 91.76 C393.85 90.13 395.33 88.57 396.49 86.99 C398.94 83.65 401.41 80.34 403.76 76.92 C403.68 76.99 403.87 76.74 403.92 76.65 C403.99 76.53 403.78 76.86 403.7 76.97 C403.59 77.13 403.48 77.29 403.37 77.46 C403.05 77.95 402.73 78.44 402.39 78.92 C401.34 80.41 400.32 81.91 399.22 83.36 C397.43 85.73 395.73 88.2 393.87 90.51 C392.59 92.09 390.88 94.1 389.99 95.88 C388.46 98.9 388.82 102.37 387.42 105.35 C386.65 106.99 385.66 108.58 384.79 110.18 C382.82 113.81 381.05 117.66 379.55 121.5 C379.19 122.42 378.85 123.37 378.56 124.31 C378.35 125 378.22 125.72 378.07 126.43 C377.29 130.17 376.68 136.09 381.4 137.37 C387.86 139.11 393.3 133.76 397.25 129.35 C398.28 128.2 399.31 126.73 400.64 125.94 C401.5 125.43 402.5 125.17 403.43 124.8 C403.55 124.75 404.32 124.51 404.41 124.42 C404.48 124.36 404.64 123.52 404.69 123.39 C404.89 122.77 405.18 122.2 405.56 121.66 C406.26 120.65 407.43 120.45 408.18 119.71 C408.25 119.64 408.47 118.7 408.51 118.57 C408.86 117.46 409.02 116.31 409.55 115.27 C410.6 113.19 412.53 111.02 413.92 109.09 C415.9 106.35 417.68 103.39 419.77 100.75 C420.38 99.98 421.27 99.63 421.85 98.8 C424.63 94.78 427 90.46 429.44 86.23 C430.19 84.95 430.71 83.57 432.01 82.71 C432.48 82.4 433.23 82.08 433.76 81.9 C433.95 81.84 434.48 81.78 434.53 81.47 C434.86 79.14 434.64 77.18 435.56 74.8 C436.27 72.99 437.67 71.4 438.79 69.82 C440.47 67.43 442.03 64.97 443.76 62.62 C443.76 62.47 444.08 62.13 443.98 62.24 C442.53 63.67 441.35 65.91 440.21 67.6 C438.75 69.77 436.69 72.13 435.56 74.48 C435.01 75.64 434.9 76.76 434.8 78 C434.77 78.33 434.57 79.18 434.63 79.46 C434.95 80.79 435.82 82.07 436.27 83.36 C436.68 84.52 436.88 85.73 437.31 86.88 C438.25 89.37 439.45 91.64 440.81 93.93 C443.43 98.32 446.5 102.76 447.7 107.79 C448.52 111.25 448.64 114.99 448.13 118.52 C447.99 119.5 447.93 120.46 447.81 121.44 C447.8 121.46 447.71 122.48 447.75 122.53 C448.66 123.43 449.53 124.32 450.43 125.23 C449.04 125.34 447.66 125.49 446.27 125.61 C445.73 125.66 444.96 125.53 444.47 125.78 C443.27 126.37 442.6 127 441.68 127.94 C441.3 128.34 440.92 128.75 440.59 129.19 C440.3 129.57 440.25 130.12 439.88 130.49 C438.74 131.62 436.59 132.53 435.13 133.25 C428.89 136.34 420.37 137.04 413.76 134.66 C410.92 133.64 408.13 132 406.49 129.4 C406.11 128.8 405.93 128.15 405.78 127.45 C405.72 127.18 405.53 126.91 405.62 126.64 C406.36 124.25 408.14 122.47 409.39 120.41 C413.32 120.41 417.16 120.52 421.03 121.06 C423.92 121.47 427.21 122.37 429.99 123.28 C431.43 123.76 433.14 124.43 434.63 124.64 C436.35 124.88 438.01 125.08 439.72 125.29 C440.67 125.41 441.02 126.31 441.68 126.43 C442.32 126.53 443.79 125.88 444.42 125.72 C445.34 125.49 446.63 125.54 447.59 125.45 C450.55 125.18 453.49 125.22 456.39 124.31 C461.26 122.79 466 118.66 469.23 114.78 C473.18 110.03 476.5 105.03 479.72 99.78" stroke="black"/>
</svg>
