<svg width="491" height="160" viewBox="0 0 491 160" fill="none" xmlns="http://www.w3.org/2000/svg">
<path d="M430.178 142.17C423.318 142.17 418.068 140.77 414.428 137.97C410.788 135.17 408.968 132.23 408.968 129.15C408.968 126.91 409.948 124.95 411.908 123.27C413.728 121.45 416.878 120.54 421.358 120.54C424.158 120.54 427.518 120.96 431.438 121.8C434.378 122.5 437.458 123.41 440.678 124.53C444.038 125.65 447.468 126.14 450.968 126C451.948 124.46 452.508 123.2 452.648 122.22C452.788 121.24 452.858 120.05 452.858 118.65C452.858 114.03 452.088 110.18 450.548 107.1C449.148 104.02 447.468 101.01 445.508 98.07C443.688 95.13 442.148 91.56 440.888 87.36C439.068 90.44 436.758 94.5 433.958 99.54C431.158 104.44 426.538 111.16 420.098 119.7C419.678 120.4 418.838 120.75 417.578 120.75C415.478 120.75 414.428 119.84 414.428 118.02C414.428 117.6 414.778 116.97 415.478 116.13C416.038 115.29 417.438 113.12 419.678 109.62C422.198 105.56 425.138 101.01 428.498 95.97C431.858 90.79 435.078 85.12 438.158 78.96C438.298 76.58 438.788 74.27 439.628 72.03C440.468 69.79 441.448 67.76 442.568 65.94C444.108 63.42 445.718 61.6 447.398 60.48C449.078 59.22 450.618 58.59 452.018 58.59C454.678 58.59 456.008 60.13 456.008 63.21C456.008 65.31 455.168 68.04 453.488 71.4C452.508 73.5 451.248 75.32 449.708 76.86C448.168 78.26 446.838 79.52 445.718 80.64C445.998 84.14 446.838 87.29 448.238 90.09C449.638 92.89 451.178 95.62 452.858 98.28C454.678 100.94 456.218 103.81 457.478 106.89C458.738 109.97 459.368 113.68 459.368 118.02C459.368 120.82 458.878 123.41 457.898 125.79C460.978 125.93 464.128 124.81 467.348 122.43C470.708 119.91 473.858 116.69 476.798 112.77C479.878 108.85 482.608 104.86 484.988 100.8C485.688 99.82 486.598 99.33 487.718 99.33C488.418 99.33 489.118 99.54 489.818 99.96C490.518 100.38 490.868 101.08 490.868 102.06C490.868 102.62 490.658 103.32 490.238 104.16C486.178 111.44 482.258 117.11 478.478 121.17C474.838 125.09 471.128 127.82 467.348 129.36C463.568 130.9 459.368 131.81 454.748 132.09C451.248 135.31 447.468 137.83 443.408 139.65C439.488 141.33 435.078 142.17 430.178 142.17ZM429.128 137.13C432.348 137.13 435.148 136.64 437.528 135.66C439.908 134.68 442.498 133.28 445.298 131.46C442.358 131.04 439.908 130.55 437.948 129.99C435.988 129.29 433.468 128.59 430.388 127.89C426.468 127.05 423.388 126.63 421.148 126.63C417.088 126.63 415.058 127.61 415.058 129.57C415.058 131.11 416.388 132.79 419.048 134.61C421.708 136.29 425.068 137.13 429.128 137.13Z" fill="black"/>
<path d="M389.666 144.69C387.286 144.69 385.116 143.99 383.156 142.59C381.196 141.19 380.216 138.74 380.216 135.24C380.216 130.76 381.336 126 383.576 120.96C385.956 115.92 388.896 110.39 392.396 104.37C387.916 109.55 382.876 115.15 377.276 121.17C371.816 127.19 366.356 132.02 360.896 135.66C356.136 138.74 352.216 140.28 349.136 140.28C346.616 140.28 344.726 139.44 343.466 137.76C342.066 136.08 341.366 133.91 341.366 131.25C341.366 128.17 342.066 125.16 343.466 122.22C346.546 114.94 350.046 107.03 353.966 98.49C357.886 89.81 362.016 82.18 366.356 75.6C366.776 75.04 367.196 74.62 367.616 74.34C368.176 73.92 368.806 73.71 369.506 73.71C370.486 73.71 371.326 73.99 372.026 74.55C372.866 75.11 373.286 75.81 373.286 76.65C373.286 76.93 373.146 77.35 372.866 77.91C372.026 79.87 370.486 83.02 368.246 87.36C366.146 91.56 363.696 96.39 360.896 101.85C358.096 107.31 355.226 112.91 352.286 118.65C350.046 122.99 348.926 126.77 348.926 129.99C348.926 132.51 349.836 133.77 351.656 133.77C352.496 133.77 353.406 133.49 354.386 132.93C358.586 130.55 362.296 127.75 365.516 124.53C368.736 121.31 371.886 118.02 374.966 114.66C376.926 112.56 378.816 110.46 380.636 108.36C382.596 106.26 384.486 104.09 386.306 101.85C387.006 101.15 388.336 99.47 390.296 96.81C392.396 94.15 394.706 91.21 397.226 87.99C399.746 84.63 401.986 81.69 403.946 79.17C406.046 76.51 407.306 74.9 407.726 74.34C408.846 73.22 410.526 72.66 412.766 72.66C413.886 72.66 414.866 72.94 415.706 73.5C416.686 73.92 417.176 74.69 417.176 75.81C417.176 76.79 416.476 78.47 415.076 80.85C413.816 83.09 412.276 85.61 410.456 88.41C408.636 91.07 406.886 93.52 405.206 95.76C403.526 98 402.336 99.68 401.636 100.8C401.076 101.78 400.026 103.67 398.486 106.47C396.946 109.13 395.266 112.28 393.446 115.92C391.766 119.42 390.296 122.85 389.036 126.21C387.776 129.57 387.146 132.37 387.146 134.61C387.146 137.13 388.196 138.39 390.296 138.39C392.536 138.39 395.126 136.99 398.066 134.19C401.006 131.39 404.086 127.96 407.306 123.9C410.526 119.7 413.536 115.57 416.336 111.51C419.136 107.31 421.516 103.81 423.476 101.01C424.036 100.31 424.596 99.89 425.156 99.75C425.716 99.61 426.136 99.54 426.416 99.54C427.816 99.54 428.656 100.38 428.936 102.06C428.936 102.48 428.446 103.67 427.466 105.63C426.486 107.59 425.506 109.2 424.526 110.46C423.266 112.28 421.306 115.08 418.646 118.86C416.126 122.5 413.186 126.42 409.826 130.62C406.606 134.68 403.036 138.32 399.116 141.54C396.596 143.64 393.446 144.69 389.666 144.69Z" fill="black"/>
<path d="M315.064 143.01C312.404 143.01 310.094 142.17 308.134 140.49C306.314 138.81 305.404 136.15 305.404 132.51C305.404 129.57 305.964 126.56 307.084 123.48C308.204 120.26 309.254 117.74 310.234 115.92C312.474 111.44 314.854 107.31 317.374 103.53C319.894 99.61 321.784 96.81 323.044 95.13C320.524 95.27 317.514 94.64 314.014 93.24C310.654 91.84 308.274 90.02 306.874 87.78C305.054 90.44 302.464 94.78 299.104 100.8C295.744 106.68 291.474 112.91 286.294 119.49C285.454 120.61 284.474 121.17 283.354 121.17C281.254 121.17 280.204 120.26 280.204 118.44C280.204 117.74 280.414 117.11 280.834 116.55C282.934 113.61 285.524 109.83 288.604 105.21C291.824 100.45 294.904 95.55 297.844 90.51C300.924 85.33 303.374 80.71 305.194 76.65C305.754 75.39 306.314 74.06 306.874 72.66C307.574 71.26 308.204 69.93 308.764 68.67C309.324 67.69 310.094 66.85 311.074 66.15C312.054 65.31 313.174 64.89 314.434 64.89C315.554 64.89 316.674 65.38 317.794 66.36C318.914 67.2 319.474 68.18 319.474 69.3C319.474 70.56 318.984 72.17 318.004 74.13C317.164 75.95 316.254 77.84 315.274 79.8C314.294 81.76 313.804 83.51 313.804 85.05C313.804 86.31 314.854 87.15 316.954 87.57C319.054 87.99 320.594 88.2 321.574 88.2C325.354 88.2 328.504 87.43 331.024 85.89C333.544 84.35 335.294 83.58 336.274 83.58C337.114 83.58 337.814 83.93 338.374 84.63C339.074 85.19 339.424 85.82 339.424 86.52C339.424 87.5 339.004 88.34 338.164 89.04C336.204 90.86 333.894 93.45 331.234 96.81C328.574 100.17 325.914 103.81 323.254 107.73C320.594 111.65 318.284 115.5 316.324 119.28C315.764 120.68 314.924 122.64 313.804 125.16C312.824 127.68 312.334 130.06 312.334 132.3C312.334 136.08 313.664 137.97 316.324 137.97C317.444 137.97 318.704 137.55 320.104 136.71C321.644 135.87 323.114 134.89 324.514 133.77C327.874 130.69 330.814 127.68 333.334 124.74C335.994 121.66 338.654 118.23 341.314 114.45C343.974 110.67 347.054 106.12 350.554 100.8C351.114 99.82 352.094 99.33 353.494 99.33C355.314 99.33 356.224 100.17 356.224 101.85C356.224 102.69 355.804 103.88 354.964 105.42C353.004 108.92 350.414 112.77 347.194 116.97C344.114 121.17 340.894 125.16 337.534 128.94C334.314 132.58 331.444 135.38 328.924 137.34C324.444 141.12 319.824 143.01 315.064 143.01Z" fill="black"/>
<path d="M229.007 144.9C225.227 144.9 222.217 143.92 219.977 141.96C217.737 140 216.057 137.62 214.937 134.82C213.957 131.88 213.467 129.15 213.467 126.63C213.467 123.27 214.097 119.56 215.357 115.5C216.617 111.3 217.737 108.43 218.717 106.89C218.717 106.47 218.647 106.05 218.507 105.63C218.507 105.07 218.507 104.58 218.507 104.16C218.507 100.38 219.067 96.46 220.187 92.4C221.447 87.64 223.687 83.3 226.907 79.38C230.127 75.32 234.117 72.03 238.877 69.51C243.777 66.99 249.097 65.73 254.837 65.73C261.557 65.73 266.737 67.55 270.377 71.19C274.017 74.69 275.837 79.31 275.837 85.05C275.837 93.03 274.367 99.89 271.427 105.63C268.627 111.37 265.617 116.9 262.397 122.22C261.837 123.34 261.347 124.25 260.927 124.95C260.507 125.65 260.927 126 262.187 126C266.247 126 270.237 124.32 274.157 120.96C278.077 117.6 283.047 111.23 289.067 101.85C289.487 101.15 289.907 100.59 290.327 100.17C290.747 99.75 291.377 99.54 292.217 99.54H292.637C294.177 99.54 295.087 100.45 295.367 102.27C295.367 102.69 295.227 103.18 294.947 103.74C291.447 109.9 287.877 115.22 284.237 119.7C280.737 124.18 276.537 127.61 271.637 129.99C266.737 132.23 260.577 133.42 253.157 133.56C250.217 136.36 246.577 138.95 242.237 141.33C238.037 143.71 233.627 144.9 229.007 144.9ZM249.167 125.58H251.267C254.207 122.08 257.007 118.09 259.667 113.61C262.467 109.13 264.707 104.51 266.387 99.75C268.067 94.85 268.907 90.23 268.907 85.89C268.907 81.83 267.857 78.4 265.757 75.6C263.657 72.66 260.017 71.19 254.837 71.19C251.337 71.19 247.907 71.96 244.547 73.5C241.327 74.9 238.527 76.65 236.147 78.75L236.777 79.59C237.057 79.45 237.477 79.38 238.037 79.38C238.877 79.38 239.647 79.73 240.347 80.43C241.047 80.99 241.397 81.62 241.397 82.32C241.397 82.74 241.327 83.09 241.187 83.37C241.047 83.65 240.837 83.93 240.557 84.21C238.177 87.71 235.867 91 233.627 94.08C231.387 97.16 229.287 100.66 227.327 104.58C226.907 105.56 226.417 106.54 225.857 107.52C226.977 112.7 229.567 117.04 233.627 120.54C237.827 123.9 243.007 125.58 249.167 125.58ZM230.267 139.02C233.067 139.02 235.867 138.18 238.667 136.5C241.467 134.68 243.847 133 245.807 131.46C235.167 130.34 227.327 125.65 222.287 117.39C222.147 118.37 221.867 119.84 221.447 121.8C221.027 123.76 220.817 125.72 220.817 127.68C220.817 130.48 221.447 133.07 222.707 135.45C223.967 137.83 226.487 139.02 230.267 139.02Z" fill="black"/>
<path d="M181.102 141.54C177.602 141.54 174.522 140.56 171.862 138.6C169.342 136.64 168.082 133.7 168.082 129.78C168.082 124.32 169.552 118.58 172.492 112.56C175.432 106.54 179.002 100.73 183.202 95.13C187.402 89.39 191.322 84.35 194.962 80.01C197.202 77.63 198.322 75.6 198.322 73.92C198.322 72.66 197.692 71.96 196.432 71.82C196.012 71.68 195.452 71.61 194.752 71.61C191.672 71.61 188.592 72.73 185.512 74.97C182.432 77.21 179.912 79.1 177.952 80.64C171.512 85.68 165.282 91.56 159.262 98.28C153.242 105 148.272 111.16 144.352 116.76C142.952 118.86 141.762 121.45 140.782 124.53C139.802 127.47 138.892 130.27 138.052 132.93C137.352 135.59 136.512 137.48 135.532 138.6C134.132 140.28 132.592 141.12 130.912 141.12C129.652 141.12 128.602 140.7 127.762 139.86C126.922 138.88 126.502 137.69 126.502 136.29C126.502 135.45 126.572 134.82 126.712 134.4C128.392 127.82 130.562 120.61 133.222 112.77C136.022 104.79 138.962 96.95 142.042 89.25C145.262 81.41 148.342 74.41 151.282 68.25C153.382 63.77 155.832 58.73 158.632 53.13C161.572 47.39 164.862 41.72 168.502 36.12C172.282 30.38 176.412 25.27 180.892 20.79C185.512 16.31 190.552 13.02 196.012 10.92C198.112 10.08 200.212 9.66 202.312 9.66C205.112 9.66 207.492 10.36 209.452 11.76C211.552 13.16 212.602 15.47 212.602 18.69C212.602 21.77 211.482 25.34 209.242 29.4C207.002 33.32 204.202 37.31 200.842 41.37C197.482 45.43 194.052 49.21 190.552 52.71C187.052 56.21 183.972 59.08 181.312 61.32C175.152 66.36 169.272 71.05 163.672 75.39C158.212 79.73 153.592 84.21 149.812 88.83C147.292 95.83 145.542 101.64 144.562 106.26C148.482 100.94 153.242 95.55 158.842 90.09C164.442 84.49 169.692 79.8 174.592 76.02C177.252 73.92 180.542 71.61 184.462 69.09C188.382 66.57 192.302 65.31 196.222 65.31C199.022 65.31 201.262 66.01 202.942 67.41C204.622 68.81 205.462 70.7 205.462 73.08C205.462 76.3 203.852 79.8 200.632 83.58C197.412 87.36 193.842 91.98 189.922 97.44C186.142 102.9 182.852 108.43 180.052 114.03C177.392 119.63 176.062 124.74 176.062 129.36C176.062 131.6 176.692 133.21 177.952 134.19C179.212 135.17 180.682 135.66 182.362 135.66C184.882 135.66 187.192 134.82 189.292 133.14C192.792 130.48 196.012 127.33 198.952 123.69C202.032 120.05 204.832 116.41 207.352 112.77C209.872 109.13 212.042 105.98 213.862 103.32C215.262 101.08 216.872 99.96 218.692 99.96C220.092 99.96 220.792 100.73 220.792 102.27C220.792 102.69 220.722 103.18 220.582 103.74C220.442 104.3 220.162 104.93 219.742 105.63C217.782 109.13 215.192 112.98 211.972 117.18C208.892 121.38 205.742 125.37 202.522 129.15C199.302 132.79 196.362 135.52 193.702 137.34C190.062 140.14 185.862 141.54 181.102 141.54ZM198.742 15.75C194.402 17.43 190.132 20.37 185.932 24.57C181.872 28.77 177.882 33.81 173.962 39.69C170.182 45.57 166.612 51.8 163.252 58.38C159.892 64.82 156.882 71.19 154.222 77.49C158.842 73.29 162.972 69.72 166.612 66.78C170.392 63.84 174.102 60.76 177.742 57.54C180.962 54.74 184.392 51.31 188.032 47.25C191.812 43.05 195.242 38.71 198.322 34.23C201.542 29.75 203.782 25.62 205.042 21.84C205.322 21.14 205.532 20.51 205.672 19.95C205.812 19.25 205.882 18.69 205.882 18.27C205.882 16.03 204.762 14.91 202.522 14.91C201.962 14.91 201.332 14.98 200.632 15.12C200.072 15.26 199.442 15.47 198.742 15.75Z" fill="black"/>
<path d="M58.38 159.6C46.9 159.6 36.75 157.22 27.93 152.46C19.25 147.7 12.39 141.33 7.35 133.35C2.45 125.23 0 116.34 0 106.68C0 99.54 1.19 92.4 3.57 85.26C5.95 77.98 9.17 70.98 13.23 64.26C17.29 57.54 21.84 51.52 26.88 46.2C26.32 44.94 25.9 43.68 25.62 42.42C25.34 41.02 25.2 39.69 25.2 38.43V37.59C25.2 36.47 25.34 35.49 25.62 34.65C26.04 33.67 26.95 33.18 28.35 33.18C29.47 33.18 30.38 33.46 31.08 34.02C31.92 34.58 32.34 35.35 32.34 36.33C32.34 37.17 32.27 38.01 32.13 38.85C32.13 39.55 32.13 40.32 32.13 41.16C43.05 30.66 55.86 21.91 70.56 14.91C85.4 7.77001 100.87 3.08001 116.97 0.840001C119.07 0.560005 121.17 0.350008 123.27 0.21001C125.37 0.070003 127.47 0 129.57 0C135.17 0 140.77 0.770002 146.37 2.31001C152.11 3.85 156.87 6.3 160.65 9.66C164.57 13.02 166.53 17.57 166.53 23.31C166.53 26.53 165.83 29.68 164.43 32.76C163.03 35.84 161.21 38.64 158.97 41.16C153.37 47.74 146.23 52.99 137.55 56.91C128.87 60.83 119.56 63.63 109.62 65.31C99.82 66.85 90.44 67.62 81.48 67.62C76.02 67.62 70.07 67.06 63.63 65.94C57.33 64.68 51.24 62.86 45.36 60.48C39.62 57.96 34.86 54.88 31.08 51.24C24.36 59.08 18.69 67.69 14.07 77.07C9.45 86.45 7.14 96.11 7.14 106.05C7.14 114.73 9.31 122.64 13.65 129.78C17.99 136.92 24.01 142.52 31.71 146.58C39.55 150.78 48.58 152.88 58.8 152.88C66.5 152.88 74.55 151.41 82.95 148.47C91.35 145.67 99.96 140.49 108.78 132.93C117.74 125.37 126.7 114.73 135.66 101.01C136.08 100.31 136.85 99.82 137.97 99.54C140.21 99.54 141.33 100.52 141.33 102.48C141.33 103.04 141.12 103.67 140.7 104.37C134.96 114.59 128.03 123.9 119.91 132.3C111.93 140.56 102.76 147.14 92.4 152.04C82.18 157.08 70.84 159.6 58.38 159.6ZM81.48 61.53C89.46 61.53 97.93 60.9 106.89 59.64C115.85 58.24 124.39 55.93 132.51 52.71C140.63 49.49 147.28 45.08 152.46 39.48C154.42 37.24 156.03 34.79 157.29 32.13C158.69 29.47 159.39 26.74 159.39 23.94C159.39 19.32 157.85 15.75 154.77 13.23C151.69 10.57 147.91 8.68 143.43 7.56C138.95 6.44 134.47 5.88 129.99 5.88C128.17 5.88 126.28 5.95 124.32 6.09001C122.36 6.23001 120.4 6.44 118.44 6.72C102.76 8.96001 87.57 13.72 72.87 21C58.17 28.14 45.64 36.89 35.28 47.25C38.08 50.61 42.21 53.34 47.67 55.44C53.27 57.54 59.15 59.08 65.31 60.06C71.47 61.04 76.86 61.53 81.48 61.53Z" fill="black"/>
</svg>
